<svg xmlns="http://www.w3.org/2000/svg" fill="none" viewBox="0 0 91 95" aria-label="No projects illustration"><path fill="lch(4.8% 0.7 272)" fill-rule="evenodd" d="M10.7 49c2.6-1.4 3.9-2 5.2-2.4 1.2-.2 2.5-.2 3.7 0 1.3.3 2.6 1 5.2 2.4l3.7 2c2.5 1.3 3.8 2 4.7 3a8 8 0 0 1 1.8 2.9c.5 1.2.5 2.6.5 5.3v4c0 2.7 0 4.1-.5 5.3-.3 1.1-1 2.1-1.8 3-1 1-2.2 1.6-4.7 3l-3.7 2c-2.6 1.3-3.9 2-5.2 2.3-1.2.2-2.5.2-3.7 0a23 23 0 0 1-5.2-2.4l-3.7-2c-2.5-1.3-3.8-2-4.7-3a8 8 0 0 1-1.9-2.9C0 70.3 0 69 0 66.2v-4c0-2.7 0-4 .4-5.3.4-1 1-2 1.9-3 .9-.9 2.2-1.6 4.7-3l3.7-2Z" clip-rule="evenodd"></path><path fill="lch(62.6% 1.35 272 / 1)" fill-rule="evenodd" d="M10.7 49c2.6-1.4 3.9-2 5.2-2.4 1.2-.2 2.5-.2 3.7 0 1.3.3 2.6 1 5.2 2.4l3.7 2c2.5 1.3 3.8 2 4.7 3a8 8 0 0 1 1.8 2.9c.5 1.2.5 2.6.5 5.3v4c0 2.7 0 4.1-.5 5.3-.3 1.1-1 2.1-1.8 3-1 1-2.2 1.6-4.7 3l-3.7 2c-2.6 1.3-3.9 2-5.2 2.3-1.2.2-2.5.2-3.7 0a23 23 0 0 1-5.2-2.4l-3.7-2c-2.5-1.3-3.8-2-4.7-3a8 8 0 0 1-1.9-2.9C0 70.3 0 69 0 66.2v-4c0-2.7 0-4 .4-5.3.4-1 1-2 1.9-3 .9-.9 2.2-1.6 4.7-3l3.7-2Zm13.4 1.3 3.6 2a18 18 0 0 1 4.4 2.7l.7.7L22 61.1l-.8.4c-2 1-4.4 1-6.4 0l-1-.4-11-5.5.5-.6c.8-.7 1.8-1.3 4.4-2.7l3.7-2a19 19 0 0 1 4.8-2.2c1-.2 2-.2 3 0 1.2.2 2.2.8 4.9 2.2ZM2 56.8l-.3.6c-.3 1-.3 2-.3 4.8v4c0 2.8 0 3.9.3 4.8.4.9.9 1.7 1.5 2.4.8.8 1.8 1.3 4.4 2.7l3.7 2a19 19 0 0 0 4.8 2.2l.8.1.2-11.4c0-2.8-1.5-5.3-4-6.6l-11-5.6Zm16.6 23.6.6-.1c1-.2 2.1-.8 4.8-2.2l3.6-2a18 18 0 0 0 4.4-2.7 6 6 0 0 0 1.5-2.4c.4-.9.4-2 .4-4.8v-4a15.7 15.7 0 0 0-.5-5.1l-10.9 5.4a7.2 7.2 0 0 0-3.9 6.4v11.5Z" clip-rule="evenodd"></path><path fill="lch(4.8% 0.7 272)" fill-rule="evenodd" d="M56.7 49c2.6-1.4 3.9-2 5.2-2.4 1.2-.2 2.5-.2 3.7 0 1.3.3 2.6 1 5.2 2.4l3.7 2c2.5 1.3 3.8 2 4.7 3a8 8 0 0 1 1.8 2.9c.5 1.2.5 2.6.5 5.3v4c0 2.7 0 4.1-.5 5.3-.3 1.1-1 2.1-1.8 3-1 1-2.2 1.6-4.7 3l-3.7 2c-2.6 1.3-3.9 2-5.2 2.3-1.2.2-2.5.2-3.7 0a23 23 0 0 1-5.2-2.4l-3.7-2c-2.5-1.3-3.8-2-4.7-3a8 8 0 0 1-1.9-2.9c-.4-1.2-.4-2.6-.4-5.3v-4c0-2.7 0-4 .4-5.3.4-1 1-2 1.9-3 .9-.9 2.2-1.6 4.7-3l3.7-2Z" clip-rule="evenodd"></path><path fill="lch(62.6% 1.35 272 / 1)" fill-rule="evenodd" d="M56.7 49c2.6-1.4 3.9-2 5.2-2.4 1.2-.2 2.5-.2 3.7 0 1.3.3 2.6 1 5.2 2.4l3.7 2c2.5 1.3 3.8 2 4.7 3a8 8 0 0 1 1.8 2.9c.5 1.2.5 2.6.5 5.3v4c0 2.7 0 4.1-.5 5.3-.3 1.1-1 2.1-1.8 3-1 1-2.2 1.6-4.7 3l-3.7 2c-2.6 1.3-3.9 2-5.2 2.3-1.2.2-2.5.2-3.7 0a23 23 0 0 1-5.2-2.4l-3.7-2c-2.5-1.3-3.8-2-4.7-3a8 8 0 0 1-1.9-2.9c-.4-1.2-.4-2.6-.4-5.3v-4c0-2.7 0-4 .4-5.3.4-1 1-2 1.9-3 .9-.9 2.2-1.6 4.7-3l3.7-2Zm13.4 1.3 3.6 2a18 18 0 0 1 4.4 2.7l.7.7L68 61.1l-.8.4c-2 1-4.4 1-6.4 0l-1-.4-11-5.5.5-.6c.8-.7 1.8-1.3 4.4-2.7l3.7-2a19 19 0 0 1 4.8-2.2c1-.2 2-.2 3 0 1.2.2 2.2.8 4.9 2.2Zm-22 6.5-.3.6c-.3 1-.3 2-.3 4.8v4c0 2.8 0 3.9.3 4.8.4.9.9 1.7 1.5 2.4.8.8 1.8 1.3 4.4 2.7l3.7 2a19 19 0 0 0 4.8 2.2l.8.1.2-11.4c0-2.8-1.5-5.3-4-6.6l-11.1-5.6Zm16.6 23.6.6-.1c1-.2 2.1-.8 4.8-2.2l3.6-2a18 18 0 0 0 4.4-2.7 6 6 0 0 0 1.5-2.4c.4-.9.4-2 .4-4.8v-4a15.7 15.7 0 0 0-.5-5.1l-10.9 5.4a7.2 7.2 0 0 0-3.8 6.4v11.5Z" clip-rule="evenodd"></path><path fill="lch(4.8% 0.7 272)" fill-rule="evenodd" d="M33.7 62c2.6-1.4 3.9-2 5.2-2.4 1.2-.2 2.5-.2 3.7 0 1.3.3 2.6 1 5.2 2.4l3.7 2c2.5 1.3 3.8 2 4.7 3a8 8 0 0 1 1.8 2.9c.5 1.2.5 2.6.5 5.3v4c0 2.7 0 4.1-.5 5.3-.3 1.1-1 2.1-1.8 3-1 1-2.2 1.6-4.7 3l-3.7 2c-2.6 1.3-3.9 2-5.2 2.3-1.2.2-2.5.2-3.7 0a23 23 0 0 1-5.2-2.4l-3.7-2c-2.5-1.3-3.8-2-4.7-3a8 8 0 0 1-1.9-2.9c-.4-1.2-.4-2.6-.4-5.3v-4c0-2.7 0-4 .4-5.3.4-1 1-2 1.9-3 .9-.9 2.2-1.6 4.7-3l3.7-2Z" clip-rule="evenodd"></path><path fill="lch(62.6% 1.35 272 / 1)" fill-rule="evenodd" d="M33.7 62c2.6-1.4 3.9-2 5.2-2.4 1.2-.2 2.5-.2 3.7 0 1.3.3 2.6 1 5.2 2.4l3.7 2c2.5 1.3 3.8 2 4.7 3a8 8 0 0 1 1.8 2.9c.5 1.2.5 2.6.5 5.3v4c0 2.7 0 4.1-.5 5.3-.3 1.1-1 2.1-1.8 3-1 1-2.2 1.6-4.7 3l-3.7 2c-2.6 1.3-3.9 2-5.2 2.3-1.2.2-2.5.2-3.7 0a23 23 0 0 1-5.2-2.4l-3.7-2c-2.5-1.3-3.8-2-4.7-3a8 8 0 0 1-1.9-2.9c-.4-1.2-.4-2.6-.4-5.3v-4c0-2.7 0-4 .4-5.3.4-1 1-2 1.9-3 .9-.9 2.2-1.6 4.7-3l3.7-2Zm13.4 1.3 3.6 2a18 18 0 0 1 4.4 2.7l.7.7L45 74.1l-.8.4c-2 1-4.4 1-6.4 0l-1-.4-11-5.5.5-.6c.8-.7 1.8-1.3 4.4-2.7l3.7-2a19 19 0 0 1 4.8-2.2c1-.2 2-.2 3 0 1.2.2 2.2.8 4.9 2.2Zm-22 6.5-.3.6c-.3 1-.3 2-.3 4.8v4c0 2.8 0 3.9.3 4.8.4.9.9 1.7 1.5 2.4.8.8 1.8 1.3 4.4 2.7l3.7 2a19 19 0 0 0 4.8 2.2l.8.1.2-11.4c0-2.8-1.5-5.3-4-6.6l-11.1-5.6Zm16.6 23.6.6-.1c1-.2 2.1-.8 4.8-2.2l3.6-2a18 18 0 0 0 4.4-2.7 6 6 0 0 0 1.5-2.4c.4-.9.4-2 .4-4.8v-4a15.7 15.7 0 0 0-.5-5.1l-10.9 5.4a7.2 7.2 0 0 0-3.9 6.4v11.5Z" clip-rule="evenodd"></path><path fill="lch(4.8% 0.7 272)" fill-rule="evenodd" d="M33.7 12c2.6-1.4 3.9-2 5.2-2.4 1.2-.2 2.5-.2 3.7 0 1.3.3 2.6 1 5.2 2.4l3.7 2c2.5 1.3 3.8 2 4.7 3a8 8 0 0 1 1.8 2.9c.5 1.2.5 2.6.5 5.3v4c0 2.7 0 4.1-.5 5.3-.3 1.1-1 2.1-1.8 3-1 1-2.2 1.6-4.7 3l-3.7 2c-2.6 1.3-3.9 2-5.2 2.3-1.2.2-2.5.2-3.7 0a23 23 0 0 1-5.2-2.4l-3.7-2c-2.5-1.3-3.8-2-4.7-3a8 8 0 0 1-1.9-2.9c-.4-1.2-.4-2.6-.4-5.3v-4c0-2.7 0-4 .4-5.3.4-1 1-2 1.9-3 .9-.9 2.2-1.6 4.7-3l3.7-2Z" clip-rule="evenodd"></path><path fill="lch(62.6% 1.35 272 / 1)" fill-rule="evenodd" d="M33.7 12c2.6-1.4 3.9-2 5.2-2.4 1.2-.2 2.5-.2 3.7 0 1.3.3 2.6 1 5.2 2.4l3.7 2c2.5 1.3 3.8 2 4.7 3a8 8 0 0 1 1.8 2.9c.5 1.2.5 2.6.5 5.3v4c0 2.7 0 4.1-.5 5.3-.3 1.1-1 2.1-1.8 3-1 1-2.2 1.6-4.7 3l-3.7 2c-2.6 1.3-3.9 2-5.2 2.3-1.2.2-2.5.2-3.7 0a23 23 0 0 1-5.2-2.4l-3.7-2c-2.5-1.3-3.8-2-4.7-3a8 8 0 0 1-1.9-2.9c-.4-1.2-.4-2.6-.4-5.3v-4c0-2.7 0-4 .4-5.3.4-1 1-2 1.9-3 .9-.9 2.2-1.6 4.7-3l3.7-2Zm13.4 1.3 3.6 2a18 18 0 0 1 4.4 2.7l.7.7L45 24.1l-.8.4c-2 1-4.4 1-6.4 0l-1-.4-11-5.5.5-.6c.8-.7 1.8-1.3 4.4-2.7l3.7-2a19 19 0 0 1 4.8-2.2c1-.2 2-.2 3 0 1.2.2 2.2.8 4.9 2.2Zm-22 6.5-.3.6c-.3 1-.3 2-.3 4.8v4c0 2.8 0 3.9.3 4.8.4.9.9 1.7 1.5 2.4.8.8 1.8 1.3 4.4 2.7l3.7 2a19 19 0 0 0 4.8 2.2l.8.1.2-11.4c0-2.8-1.5-5.3-4-6.6l-11.1-5.6Zm16.6 23.6.6-.1c1-.2 2.1-.8 4.8-2.2l3.6-2a18 18 0 0 0 4.4-2.7 6 6 0 0 0 1.5-2.4c.4-.9.4-2 .4-4.8v-4a15.7 15.7 0 0 0-.5-5.1l-10.9 5.4a7.2 7.2 0 0 0-3.9 6.4v11.5Z" clip-rule="evenodd"></path><path fill="lch(4.8% 0.7 272)" fill-rule="evenodd" d="M10.7 24c2.6-1.4 3.9-2 5.2-2.4 1.2-.2 2.5-.2 3.7 0 1.3.3 2.6 1 5.2 2.4l3.7 2c2.5 1.3 3.8 2 4.7 3a8 8 0 0 1 1.8 2.9c.5 1.2.5 2.6.5 5.3v4c0 2.7 0 4.1-.5 5.3-.3 1.1-1 2.1-1.8 3-1 1-2.2 1.6-4.7 3l-3.7 2c-2.6 1.3-3.9 2-5.2 2.3-1.2.2-2.5.2-3.7 0a23 23 0 0 1-5.2-2.4l-3.7-2c-2.5-1.3-3.8-2-4.7-3a8 8 0 0 1-1.9-2.9C0 45.3 0 44 0 41.2v-4c0-2.7 0-4 .4-5.3.4-1 1-2 1.9-3 .9-.9 2.2-1.6 4.7-3l3.7-2Z" clip-rule="evenodd"></path><path fill="lch(62.6% 1.35 272 / 1)" fill-rule="evenodd" d="M10.7 24c2.6-1.4 3.9-2 5.2-2.4 1.2-.2 2.5-.2 3.7 0 1.3.3 2.6 1 5.2 2.4l3.7 2c2.5 1.3 3.8 2 4.7 3a8 8 0 0 1 1.8 2.9c.5 1.2.5 2.6.5 5.3v4c0 2.7 0 4.1-.5 5.3-.3 1.1-1 2.1-1.8 3-1 1-2.2 1.6-4.7 3l-3.7 2c-2.6 1.3-3.9 2-5.2 2.3-1.2.2-2.5.2-3.7 0a23 23 0 0 1-5.2-2.4l-3.7-2c-2.5-1.3-3.8-2-4.7-3a8 8 0 0 1-1.9-2.9C0 45.3 0 44 0 41.2v-4c0-2.7 0-4 .4-5.3.4-1 1-2 1.9-3 .9-.9 2.2-1.6 4.7-3l3.7-2Zm13.4 1.3 3.6 2a18 18 0 0 1 4.4 2.7l.7.7L22 36.1l-.8.4c-2 1-4.4 1-6.4 0l-1-.4-11-5.5.5-.6c.8-.7 1.8-1.3 4.4-2.7l3.7-2a19 19 0 0 1 4.8-2.2c1-.2 2-.2 3 0 1.2.2 2.2.8 4.9 2.2ZM2 31.8l-.3.6c-.3 1-.3 2-.3 4.8v4c0 2.8 0 3.9.3 4.8.4.9.9 1.7 1.5 2.4.8.8 1.8 1.3 4.4 2.7l3.7 2a19 19 0 0 0 4.8 2.2l.8.1.2-11.4c0-2.8-1.5-5.3-4-6.6l-11-5.6Zm16.6 23.6.6-.1c1-.2 2.1-.8 4.8-2.2l3.6-2a18 18 0 0 0 4.4-2.7 6 6 0 0 0 1.5-2.4c.4-.9.4-2 .4-4.8v-4a15.7 15.7 0 0 0-.5-5.1l-10.9 5.4a7.2 7.2 0 0 0-3.9 6.4v11.5Z" clip-rule="evenodd"></path><path fill="lch(4.8% 0.7 272)" fill-rule="evenodd" d="M66.2 4.8c2.8-.8 4.2-1.2 5.6-1.1 1.3 0 2.5.3 3.6.8 1.3.5 2.3 1.5 4.5 3.4l3.2 2.7c2.2 2 3.3 2.9 4 4a8 8 0 0 1 1.1 3.3c.2 1.3-.1 2.6-.7 5.3l-.9 3.8c-.6 2.7-.9 4-1.6 5.2a8 8 0 0 1-2.4 2.4c-1.1.7-2.5 1.1-5.3 1.9l-4 1.1c-2.9.8-4.3 1.2-5.6 1.1-1.3 0-2.5-.3-3.6-.8-1.3-.5-2.4-1.5-4.6-3.4l-3.1-2.7c-2.2-2-3.3-2.9-4-4a8 8 0 0 1-1.2-3.3c-.1-1.3.2-2.6.8-5.3l.9-3.8c.6-2.7.9-4 1.6-5.1a8 8 0 0 1 2.4-2.5c1.1-.7 2.5-1.1 5.3-1.9l4-1.1Z" clip-rule="evenodd"></path><path fill="lch(90.65% 1.35 272 / 1)" fill-rule="evenodd" d="M66.2 4.8c2.8-.8 4.2-1.2 5.6-1.1 1.3 0 2.5.3 3.6.8 1.3.5 2.3 1.5 4.5 3.4l3.2 2.7c2.2 2 3.3 2.9 4 4a8 8 0 0 1 1.1 3.3c.2 1.3-.1 2.6-.7 5.3l-.9 3.8c-.6 2.7-.9 4-1.6 5.2a8 8 0 0 1-2.4 2.4c-1.1.7-2.5 1.1-5.3 1.9l-4 1.1c-2.9.8-4.3 1.2-5.6 1.1-1.3 0-2.5-.3-3.6-.8-1.3-.5-2.4-1.5-4.6-3.4l-3.1-2.7c-2.2-2-3.3-2.9-4-4a8 8 0 0 1-1.2-3.3c-.1-1.3.2-2.6.8-5.3l.9-3.8c.6-2.7.9-4 1.6-5.1a8 8 0 0 1 2.4-2.5c1.1-.7 2.5-1.1 5.3-1.9l4-1.1ZM79 9l3.1 2.8c2.3 2 3.2 2.7 3.7 3.6l.5.9L74.7 19h-.2l-.8.3c-2.2.5-4.5 0-6.3-1.5l-.7-.6L57 9.5l.6-.4c.9-.6 2-1 4.9-1.7l4-1.2a19 19 0 0 1 5.2-1c1 0 2 .2 3 .7 1 .4 1.9 1.2 4.2 3.1Zm-23 1.6-.3.5c-.5.8-.7 1.8-1.4 4.6l-.8 3.9c-.7 2.7-.9 3.8-.8 4.8.1.9.5 1.8 1 2.6.5.9 1.4 1.7 3.6 3.6l3.2 2.8a19 19 0 0 0 4.2 3.2l.7.2 2.7-11c.7-2.7-.3-5.6-2.4-7.3l-9.6-8Zm11.2 26.6h.5a19 19 0 0 0 5.1-1l4-1.1c3-.8 4-1.2 5-1.7.8-.6 1.4-1.3 2-2 .5-.9.7-2 1.3-4.7l1-3.8a15.7 15.7 0 0 0 .6-5.2l-11.8 3a7.2 7.2 0 0 0-5.2 5.3l-2.5 11.2Z" clip-rule="evenodd"></path><path id="a" fill="lch(4.8% 0.7 272)" fill-rule="evenodd" d="M33.7 37c2.6-1.4 3.9-2 5.2-2.4 1.2-.2 2.5-.2 3.7 0 1.3.3 2.6 1 5.2 2.4l3.7 2c2.5 1.3 3.8 2 4.7 3a8 8 0 0 1 1.8 2.9c.5 1.2.5 2.6.5 5.3v4c0 2.7 0 4.1-.5 5.3-.3 1.1-1 2.1-1.8 3-1 1-2.2 1.6-4.7 3l-3.7 2c-2.6 1.3-3.9 2-5.2 2.3-1.2.2-2.5.2-3.7 0a23 23 0 0 1-5.2-2.4l-3.7-2c-2.5-1.3-3.8-2-4.7-3a8 8 0 0 1-1.9-2.9c-.4-1.2-.4-2.6-.4-5.3v-4c0-2.7 0-4 .4-5.3.4-1 1-2 1.9-3 .9-.9 2.2-1.6 4.7-3l3.7-2Z" clip-rule="evenodd"></path><path id="b" fill="lch(62.6% 1.35 272 / 1)" fill-rule="evenodd" d="M33.7 37c2.6-1.4 3.9-2 5.2-2.4 1.2-.2 2.5-.2 3.7 0 1.3.3 2.6 1 5.2 2.4l3.7 2c2.5 1.3 3.8 2 4.7 3a8 8 0 0 1 1.8 2.9c.5 1.2.5 2.6.5 5.3v4c0 2.7 0 4.1-.5 5.3-.3 1.1-1 2.1-1.8 3-1 1-2.2 1.6-4.7 3l-3.7 2c-2.6 1.3-3.9 2-5.2 2.3-1.2.2-2.5.2-3.7 0a23 23 0 0 1-5.2-2.4l-3.7-2c-2.5-1.3-3.8-2-4.7-3a8 8 0 0 1-1.9-2.9c-.4-1.2-.4-2.6-.4-5.3v-4c0-2.7 0-4 .4-5.3.4-1 1-2 1.9-3 .9-.9 2.2-1.6 4.7-3l3.7-2Zm13.4 1.3 3.6 2a18 18 0 0 1 4.4 2.7l.7.7L45 49.1l-.8.4c-2 1-4.4 1-6.4 0l-1-.4-11-5.5.5-.6c.8-.7 1.8-1.3 4.4-2.7l3.7-2a19 19 0 0 1 4.8-2.2c1-.2 2-.2 3 0 1.2.2 2.2.8 4.9 2.2Zm-22 6.5-.3.6c-.3 1-.3 2-.3 4.8v4c0 2.8 0 3.9.3 4.8.4.9.9 1.7 1.5 2.4.8.8 1.8 1.3 4.4 2.7l3.7 2a19 19 0 0 0 4.8 2.2l.8.1.2-11.4c0-2.8-1.5-5.3-4-6.6l-11.1-5.6Zm16.6 23.6.6-.1c1-.2 2.1-.8 4.8-2.2l3.6-2a18 18 0 0 0 4.4-2.7 6 6 0 0 0 1.5-2.4c.4-.9.4-2 .4-4.8v-4a15.7 15.7 0 0 0-.5-5.1l-10.9 5.4a7.2 7.2 0 0 0-3.9 6.4v11.5Z" clip-rule="evenodd"></path></svg>
