<svg width="34" height="34" viewBox="0 0 34 34" fill="none" xmlns="http://www.w3.org/2000/svg">
<path d="M4.10025 8.9308C3.58108 9.29023 3.52089 10.0349 3.9756 10.4731L6.48404 12.8902C6.82479 13.2185 7.34904 13.263 7.74032 12.9969L15.315 7.84482C16.3322 7.15299 17.6686 7.1522 18.6865 7.84282L27.5731 13.8718C28.1217 14.244 28.4503 14.8639 28.4503 15.5269V27.9361C28.4503 28.3006 28.1548 28.596 27.7904 28.596C27.424 28.596 27.3306 29.1039 27.673 29.2343L32.5998 31.1103C32.986 31.2573 33.4201 31.1434 33.5886 30.7661C33.7884 30.3187 34.0001 29.6064 34.0001 28.596V11.596L18.7032 1.16175C17.6773 0.46191 16.3262 0.466589 15.3051 1.17351L4.10025 8.9308Z" fill="url(#paint0_linear_15_7)"/>
<path d="M0 13.8985C0 13.0239 1.04349 12.5707 1.68261 13.1677L5.09031 16.3508C5.49522 16.729 5.72509 17.2583 5.72509 17.8123V28.596H15.9381C16.1768 28.596 16.4135 28.6387 16.6371 28.7221L28.1905 33.0315C28.7125 33.2262 28.5729 34 28.0157 34H3C1.34315 34 0 32.6569 0 31V13.8985Z" fill="url(#paint1_linear_15_7)"/>
<defs>
<linearGradient id="paint0_linear_15_7" x1="17.0001" y1="5.31953e-06" x2="17.0001" y2="34" gradientUnits="userSpaceOnUse">
<stop stop-color="#C05D5D"/>
<stop offset="0.895" stop-color="#825050"/>
<stop offset="1"/>
</linearGradient>
<linearGradient id="paint1_linear_15_7" x1="17" y1="-1.04308e-05" x2="17" y2="34" gradientUnits="userSpaceOnUse">
<stop/>
<stop offset="0.485" stop-color="#5D2D2D"/>
<stop offset="1" stop-color="#C05D5D"/>
</linearGradient>
</defs>
</svg>
